<?xml version="1.0" encoding="iso-8859-1"?>
<!-- Generator: Adobe Illustrator 22.1.0, SVG Export Plug-In . SVG Version: 6.00 Build 0)  -->
<svg version="1.1" id="Layer_1" xmlns="http://www.w3.org/2000/svg" xmlns:xlink="http://www.w3.org/1999/xlink" x="0px" y="0px"
	 viewBox="0 0 25.029 26" style="enable-background:new 0 0 25.029 26;" xml:space="preserve">
<g id="handicap_2_">
	<path d="M8.5,24C4.916,24,2,21.084,2,17.5c0-3.066,2.137-5.639,5-6.318V9.141C3.027,9.852,0,13.326,0,17.5
		C0,22.188,3.813,26,8.5,26c4.518,0,8.213-3.546,8.475-8h-2C14.717,21.351,11.914,24,8.5,24z"/>
	<circle cx="11.5" cy="2.5" r="2.5"/>
	<polygon points="19.9,14 13,14 13,12 18,12 18,10 13,10 13,6 8,6 8,17 18.1,17 22.383,25.029 25.029,23.617 	"/>
</g>
</svg>
