<svg width="40" height="27" viewBox="0 0 40 27" fill="none" xmlns="http://www.w3.org/2000/svg">
<path d="M5.94987 5.93586C5.94987 6.09866 5.94987 6.16378 5.94987 6.19634C5.94987 6.13122 5.94987 5.9033 5.94987 5.93586Z" fill="black"/>
<path d="M5.94987 20.5225C5.94987 20.5551 5.94987 20.6202 5.94987 20.783C5.94987 20.8156 5.94987 20.5876 5.94987 20.5225Z" fill="black"/>
<path d="M39.5575 3.39622C39.4293 2.90783 39.205 2.48455 38.9167 2.1264C38.5002 1.57289 37.9556 1.14961 37.2828 0.889138C36.9944 0.7589 36.6741 0.693781 36.3537 0.661222C36.1615 0.628662 35.9372 0.628662 35.745 0.628662C34.4314 0.628662 32.8936 0.628662 31.1956 0.628662C31.0995 0.628662 31.0354 0.628662 30.9393 0.628662C23.5386 0.628662 13.5428 0.628662 7.80806 0.628662C5.50134 0.628662 3.83538 2.32176 3.83538 4.66604C3.83538 6.19634 3.83538 5.70795 3.83538 7.20568C3.83538 7.04289 3.83538 7.10801 3.83538 7.49872C3.83538 8.05223 4.12371 8.4755 4.60428 8.60574C5.30911 8.8011 5.91783 8.28015 5.91783 7.46616C5.91783 6.29402 5.91783 5.96842 5.91783 5.93586C5.91783 5.70795 5.91783 5.31723 5.91783 4.66604C5.91783 3.46134 6.6547 2.74503 7.80806 2.74503C12.3574 2.74503 19.5659 2.74503 26.0375 2.74503C26.0696 2.74503 26.1016 2.74503 26.1016 2.74503C29.3054 2.74503 32.5092 2.74503 35.6809 2.74503C36.5459 2.74503 37.1867 3.1683 37.443 3.85205C37.5391 4.07997 37.5711 4.30789 37.5711 4.60092C37.5711 4.63348 37.5711 4.63348 37.5711 4.66604C37.5711 7.33592 37.5711 10.0058 37.5711 12.6757C37.5711 15.3456 37.5711 19.3504 37.5711 22.0203C37.5711 22.0528 37.5711 22.0528 37.5711 22.0854C37.5711 22.3459 37.507 22.6063 37.443 22.8342C37.1546 23.518 36.5139 23.9413 35.6809 23.9413C32.4771 23.9413 29.2733 23.9413 26.1016 23.9413C26.0696 23.9413 26.0375 23.9413 26.0375 23.9413C19.5659 23.9413 12.3574 23.9413 7.80806 23.9413C6.62266 23.9413 5.91783 23.1924 5.91783 22.0203C5.91783 21.3691 5.91783 20.9784 5.91783 20.7504C5.91783 20.7179 5.91783 20.3923 5.91783 19.2201C5.91783 18.4062 5.30911 17.8852 4.60428 18.0806C4.12371 18.2108 3.83538 18.6341 3.83538 19.1876C3.83538 19.5783 3.83538 19.6109 3.83538 19.4806C3.83538 21.0109 3.83538 20.5225 3.83538 22.0203C3.83538 24.3645 5.50134 26.0576 7.80806 26.0576C13.5428 26.0576 23.5386 26.0576 30.9393 26.0576C31.0354 26.0576 31.0995 26.0576 31.1956 26.0576C32.8936 26.0576 34.4314 26.0576 35.745 26.0576C35.9372 26.0576 36.1615 26.0576 36.3537 26.0251C36.6741 25.9925 36.9944 25.8948 37.2828 25.7972C37.9235 25.5367 38.5002 25.1134 38.9167 24.5599C39.205 24.2018 39.4293 23.7459 39.5575 23.2901C39.6215 23.0947 39.6536 22.8994 39.7176 22.704C39.7176 16.9084 39.7176 9.81045 39.7176 4.01485C39.6856 3.81949 39.6215 3.62414 39.5575 3.39622Z" fill="black"/>
<path d="M19.9504 14.2711C20.0785 14.3037 20.2067 14.3037 20.3348 14.3037C24.5958 14.3037 28.8248 14.3037 33.0858 14.3037C33.214 14.3037 33.3742 14.3037 33.5023 14.2711C33.9188 14.206 34.2072 13.9455 34.3353 13.5222C34.5275 12.8059 34.047 12.1873 33.2781 12.1873C31.0995 12.1873 28.8889 12.1873 26.7103 12.1873C25.9735 12.1873 25.2366 12.1873 24.4997 12.1873C23.026 12.1873 21.5522 12.1873 20.0785 12.1873C19.5018 12.1873 19.0853 12.6106 19.0533 13.1641C18.9892 13.7176 19.3737 14.1734 19.9504 14.2711Z" fill="black"/>
<path d="M19.9504 8.60574C20.0785 8.6383 20.2067 8.6383 20.3348 8.6383C24.5958 8.6383 28.8248 8.6383 33.0858 8.6383C33.214 8.6383 33.3742 8.6383 33.5023 8.60574C33.9188 8.54062 34.2072 8.28015 34.3353 7.85687C34.5275 7.14057 34.047 6.52193 33.2781 6.52193C31.0995 6.52193 28.8889 6.52193 26.7103 6.52193C25.9735 6.52193 25.2366 6.52193 24.4997 6.52193C23.026 6.52193 21.5522 6.52193 20.0785 6.52193C19.5018 6.52193 19.0853 6.94521 19.0533 7.49872C18.9892 8.01967 19.3737 8.50806 19.9504 8.60574Z" fill="black"/>
<path d="M20.1746 17.8201C20.0785 17.8201 19.9504 17.8201 19.8542 17.8526C19.3416 17.9829 18.9892 18.4713 19.0213 19.0248C19.0853 19.5457 19.5339 19.969 20.0785 19.969C21.36 19.969 22.6415 19.969 23.891 19.969C25.1405 19.969 26.3899 19.969 27.6074 19.969C28.3122 19.969 28.7607 19.5457 28.7607 18.8945C28.7607 18.2759 28.2802 17.8201 27.6074 17.8201C25.1405 17.8201 22.6415 17.8201 20.1746 17.8201Z" fill="black"/>
<path d="M12.0691 14.8572C12.037 14.8897 12.005 14.9223 11.973 14.9548C11.9089 15.02 11.8448 15.0851 11.7807 15.1502C11.7487 15.1828 11.6846 15.2479 11.6526 15.2804C11.6205 15.313 11.5565 15.3781 11.5244 15.4107C11.4604 15.4758 11.3963 15.5409 11.3322 15.606C11.3002 15.6386 11.2681 15.6712 11.2361 15.7037L10.7876 16.1596C10.7555 16.1921 10.6915 16.2572 10.6594 16.2898L10.6274 16.3223C10.5313 16.42 10.4351 16.5177 10.339 16.6154C10.307 16.6479 10.307 16.6479 10.275 16.6805C10.2109 16.7456 10.1468 16.8107 10.0827 16.8759L10.0507 16.9084C9.98662 16.9735 9.89051 17.0712 9.85847 17.2015C9.73032 17.4945 9.76236 17.755 9.89051 18.0154C9.98662 18.1782 10.1148 18.3736 10.3711 18.4387C10.3711 18.4387 10.4031 18.4387 10.4351 18.4713C10.4672 18.4713 10.4672 18.5038 10.4992 18.5038V18.5364H10.8837L10.9157 18.5038C10.9157 18.5038 10.9478 18.5038 10.9478 18.4713C10.9478 18.4713 10.9478 18.4713 10.9798 18.4713C11.172 18.4062 11.3002 18.2759 11.4283 18.1457L11.4604 18.1131C11.7167 17.8526 11.973 17.5922 12.2293 17.3317C12.3895 17.1689 12.5496 17.0061 12.7098 16.8433C12.9982 16.5503 13.2865 16.2572 13.5748 15.9642L14.1195 15.4107C14.4078 15.1176 14.6641 14.8572 14.9525 14.5641C15.0806 14.4339 15.1767 14.2385 15.2088 14.0432C15.2088 14.0432 15.2088 14.0106 15.2408 14.0106V13.8153C15.2408 13.7827 15.2088 13.7827 15.2088 13.7501C15.2088 13.7176 15.2088 13.7176 15.2088 13.685C15.1767 13.6199 15.1767 13.5222 15.1127 13.4246C14.9204 13.1966 14.7282 13.0013 14.536 12.8059C14.4399 12.7082 14.3438 12.6431 14.2797 12.5454C14.2156 12.4803 14.1515 12.4152 14.0875 12.3501C13.7671 12.0571 13.4787 11.7315 13.1584 11.4384L13.0943 11.3733C12.8059 11.0803 12.5817 10.8523 12.3254 10.5919C12.2293 10.4942 12.1652 10.4291 12.0691 10.3314C11.973 10.2337 11.8768 10.136 11.8128 10.0384C11.6846 9.90812 11.5244 9.77788 11.3963 9.64765C11.2681 9.51741 11.1079 9.38717 10.8837 9.35461C10.7876 9.35461 10.7235 9.32205 10.6594 9.32205C10.4351 9.32205 10.2429 9.38717 10.0827 9.51741C9.89051 9.68021 9.76236 9.87556 9.73032 10.136C9.69828 10.4616 9.7944 10.7221 10.0507 10.9826C10.2429 11.1454 10.4031 11.3407 10.6594 11.6012C10.6915 11.6338 10.7555 11.6989 10.7876 11.7315C10.8516 11.7966 10.8837 11.8291 10.9478 11.8943C11.0439 11.9919 11.1079 12.0571 11.2041 12.1222C11.3002 12.2198 11.3642 12.285 11.4604 12.3826C11.5565 12.4803 11.6205 12.5454 11.7167 12.6431C11.7807 12.7082 11.8768 12.8059 11.9409 12.871C11.973 12.9036 12.037 12.9687 12.0691 13.0013H4.34798C3.96353 13.0013 3.64315 13.0013 3.35481 13.0013C3.06647 13.0013 2.77813 13.0013 2.52183 13.0013C2.0733 13.0013 1.62477 13.0013 0.951979 13.0013C0.695677 13.0013 0.50345 13.0664 0.343261 13.2292C0.0228841 13.4897 -0.0732291 13.8478 0.0549218 14.206C0.118997 14.4339 0.279186 14.5967 0.471412 14.7595C0.567526 14.8572 0.727714 14.8572 0.887903 14.8572C1.68885 14.8572 2.45775 14.8572 3.2587 14.8572H12.0691Z" fill="black"/>
</svg>
